<svg height="512pt" viewBox="0 0 512.0005 512" width="512pt" xmlns="http://www.w3.org/2000/svg"><path d="m398.09375 244.296875c-13.574219-13.574219-16.160156-33.972656-7.765625-50.152344 2.960937-5.707031 1.980469-12.65625-2.5625-17.203125l-163.148437-163.144531c-18.394532-18.394531-48.214844-18.394531-66.609376 0l-144.214843 144.214844c-18.390625 18.390625-18.390625 48.210937 0 66.605469l163.148437 163.144531c4.546875 4.546875 11.496094 5.527343 17.203125 2.5625 16.179688-8.394531 36.578125-5.808594 50.152344 7.769531 13.578125 13.574219 16.160156 33.972656 7.765625 50.148438-2.960938 5.707031-1.980469 12.660156 2.5625 17.207031l32.757812 32.753906c18.394532 18.394531 48.214844 18.394531 66.605469 0l144.21875-144.214844c18.390625-18.390625 18.390625-48.210937 0-66.605469l-32.757812-32.753906c-4.546875-4.550781-11.496094-5.527344-17.203125-2.566406-16.179688 8.398438-36.578125 5.808594-50.152344-7.765625zm0 0" fill="#b49cdc"/><path d="m220.550781 10.183594c-18.488281-14.679688-45.445312-13.484375-62.542969 3.613281l-144.214843 144.214844c-18.390625 18.390625-18.390625 48.210937 0 66.605469l163.148437 163.144531c4.546875 4.546875 11.496094 5.527343 17.203125 2.5625 16.179688-8.394531 36.578125-5.808594 50.152344 7.769531 13.578125 13.574219 16.160156 33.972656 7.765625 50.148438-2.960938 5.707031-1.980469 12.660156 2.5625 17.207031l32.757812 32.753906c18.394532 18.394531 48.214844 18.394531 66.605469 0l5.992188-5.988281c-128.472657-68.007813-185.457031-320.257813-139.429688-482.03125zm0 0" fill="#908cd6"/><path d="m158.007812 13.796875-144.214843 144.214844c-18.390625 18.390625-18.390625 48.210937 0 66.605469l100.722656 100.71875c59.421875-55.359376 36.039063-85.191407 80.835937-129.984376 44.792969-44.796874 74.625-21.414062 129.984376-80.835937l-100.71875-100.71875c-18.394532-18.394531-48.214844-18.394531-66.609376 0zm0 0" fill="#f7ef87"/><path d="m207.027344 184.875c-5.414063-61.496094-1.253906-122.753906 13.523437-174.691406-18.488281-14.679688-45.445312-13.484375-62.542969 3.613281l-144.214843 144.214844c-18.390625 18.390625-18.390625 48.210937 0 66.605469l100.722656 100.71875c59.421875-55.359376 36.039063-85.191407 80.835937-129.984376 4.003907-4.003906 7.882813-7.453124 11.675782-10.476562zm0 0" fill="#efd176"/><path d="m241.765625 249.75-20.015625 42.109375c-5.082031 10.6875-19.3125 12.941406-27.449219 4.347656l-32.050781-33.863281c-2.664062-2.816406-6.214844-4.625-10.054688-5.125l-46.238281-6.027344c-11.734375-1.527344-18.273437-14.367187-12.613281-24.757812l22.300781-40.949219c1.851563-3.402344 2.476563-7.339844 1.765625-11.148437l-8.554687-45.832032c-2.171875-11.636718 8.015625-21.824218 19.648437-19.652344l45.832032 8.558594c3.8125.710938 7.746093.085938 11.152343-1.765625l40.945313-22.300781c10.394531-5.664062 23.230468.878906 24.761718 12.613281l6.023438 46.234375c.5 3.84375 2.308594 7.394532 5.125 10.058594l33.863281 32.050781c8.597657 8.136719 6.339844 22.367188-4.347656 27.445313l-42.109375 20.019531c-3.5 1.664063-6.320312 4.484375-7.984375 7.984375zm0 0" fill="#a3defe"/><path d="m205.542969 104.71875-20.058594 10.925781c-3.402344 1.851563-7.339844 2.476563-11.148437 1.765625l-45.832032-8.558594c-11.636718-2.171874-21.824218 8.015626-19.652344 19.652344l8.558594 45.832032c.710938 3.808593.085938 7.746093-1.765625 11.148437l-22.304687 40.949219c-5.660156 10.390625.882812 23.230468 12.617187 24.757812l46.234375 6.027344c3.84375.5 7.394532 2.308594 10.058594 5.125l32.050781 33.863281c8.136719 8.59375 22.367188 6.339844 27.445313-4.347656l2.917968-6.132813c-15.59375-58.574218-22.300781-121.871093-19.121093-181.007812zm0 0" fill="#7acefa"/><g fill="#fff"><path d="m313.300781 336.589844c-1.917969 0-3.839843-.734375-5.304687-2.199219-2.929688-2.925781-2.929688-7.675781 0-10.605469l15.789062-15.789062c2.929688-2.929688 7.679688-2.929688 10.605469 0 2.929687 2.929687 2.929687 7.675781 0 10.605468l-15.785156 15.789063c-1.464844 1.464844-3.386719 2.199219-5.304688 2.199219zm0 0"/><path d="m269.167969 380.722656c-1.921875 0-3.839844-.730468-5.304688-2.195312-2.929687-2.929688-2.929687-7.679688 0-10.609375l15.789063-15.785157c2.929687-2.929687 7.675781-2.929687 10.605468 0 2.929688 2.925782 2.929688 7.675782 0 10.605469l-15.789062 15.785157c-1.464844 1.46875-3.382812 2.199218-5.300781 2.199218zm0 0"/><path d="m357.433594 292.457031c-1.917969 0-3.835938-.734375-5.304688-2.199219-2.925781-2.929687-2.925781-7.675781.003906-10.605468l15.789063-15.789063c2.929687-2.929687 7.675781-2.929687 10.605469 0 2.929687 2.929688 2.929687 7.679688 0 10.605469l-15.789063 15.789062c-1.464843 1.464844-3.382812 2.199219-5.304687 2.199219zm0 0"/><path d="m165.804688 215.789062c-6.425782-6.425781-18.179688-5.09375-26.25 2.976563-8.070313 8.070313-9.40625 19.824219-2.976563 26.25 6.425781 6.429687 18.179687 5.097656 26.25-2.972656 8.070313-8.074219 9.402344-19.824219 2.976563-26.253907zm0 0"/><path d="m215.792969 165.808594c6.429687 6.425781 18.179687 5.09375 26.25-2.976563 8.074219-8.070312 9.40625-19.824219 2.976562-26.25-6.425781-6.429687-18.179687-5.097656-26.25 2.972657-8.070312 8.074218-9.402343 19.824218-2.976562 26.253906zm0 0"/></g><path d="m148.101562 217.777344c-1.917968 0-3.839843-.730469-5.304687-2.195313l-5.160156-5.160156c-2.929688-2.929687-2.929688-7.679687.003906-10.609375 2.925781-2.925781 7.675781-2.925781 10.605469 0l5.160156 5.164062c2.925781 2.925782 2.925781 7.675782-.003906 10.605469-1.460938 1.464844-3.382813 2.195313-5.300782 2.195313zm0 0" fill="#4e5660"/><path d="m210.277344 155.601562c-1.917969 0-3.839844-.730468-5.304688-2.195312l-5.160156-5.164062c-2.929688-2.925782-2.929688-7.675782.003906-10.605469 2.925782-2.929688 7.675782-2.925781 10.605469 0l5.160156 5.164062c2.925781 2.925781 2.925781 7.675781-.003906 10.605469-1.460937 1.464844-3.382813 2.195312-5.300781 2.195312zm0 0" fill="#4e5660"/><path d="m172.28125 195.152344c-.523438 0-1.046875-.019532-1.574219-.054688-4.132812-.285156-7.25-3.863281-6.96875-7.996094.285157-4.132812 3.886719-7.253906 7.996094-6.96875 2.28125.15625 4.507813-.675781 6.113281-2.28125 1.609375-1.609374 2.441406-3.835937 2.285156-6.113281-.285156-4.132812 2.835938-7.714843 6.96875-7.996093 4.121094-.277344 7.710938 2.835937 7.996094 6.96875.453125 6.601562-1.96875 13.070312-6.640625 17.746093-4.304687 4.300781-10.125 6.695313-16.175781 6.695313zm0 0" fill="#4e5660"/><path d="m347.082031 416.757812c-1.921875 0-3.839843-.730468-5.304687-2.195312-2.929688-2.929688-2.929688-7.679688 0-10.605469l62.175781-62.175781c2.933594-2.929688 7.679687-2.929688 10.609375 0s2.929688 7.675781 0 10.605469l-62.179688 62.175781c-1.460937 1.464844-3.382812 2.195312-5.300781 2.195312zm0 0" fill="#4e5660"/><path d="m71.378906 195.152344c-4.140625 0-7.5-3.359375-7.5-7.5v-24.980469c0-4.144531 3.359375-7.5 7.5-7.5 4.144532 0 7.5 3.355469 7.5 7.5v24.980469c0 4.140625-3.355468 7.5-7.5 7.5zm0 0" fill="#f7ef87"/><path d="m340.449219 203.875c-4.140625 0-7.5-3.359375-7.5-7.5v-16.9375c0-4.140625 3.359375-7.5 7.5-7.5 4.144531 0 7.5 3.359375 7.5 7.5v16.9375c0 4.140625-3.355469 7.5-7.5 7.5zm0 0" fill="#908cd6"/></svg>