<?xml version="1.0" encoding="utf-8"?>
<!-- Generator: Adobe Illustrator 17.0.0, SVG Export Plug-In . SVG Version: 6.00 Build 0)  -->
<!DOCTYPE svg PUBLIC "-//W3C//DTD SVG 1.1//EN" "http://www.w3.org/Graphics/SVG/1.1/DTD/svg11.dtd">
<svg version="1.1" xmlns="http://www.w3.org/2000/svg" xmlns:xlink="http://www.w3.org/1999/xlink" x="0px" y="0px" width="350px"
	 height="125px" viewBox="0 0 350 125" enable-background="new 0 0 350 125" xml:space="preserve">
<g id="Layer_2" display="none">
	<rect display="inline" fill="#D9E1E5" width="350" height="125"/>
</g>
<g id="Layer_1">
	<g>
		<path fill="#BF2E2E" d="M260.64,118.222c0,3.467-2.811,6.278-6.278,6.278h-48.656c-3.467,0-6.278-2.811-6.278-6.278V51.018
			c0-3.467,2.811-6.278,6.278-6.278h48.656c3.467,0,6.278,2.811,6.278,6.278V118.222z"/>
		<g>
			<g>
				<path fill="#FFFFFF" d="M230.041,63.49h-0.002c-11.65-0.004-21.132,9.474-21.136,21.123
					c-0.004,11.652,9.473,21.133,21.123,21.137h0.002c11.649,0.003,21.132-9.473,21.136-21.124
					C251.168,72.975,241.691,63.494,230.041,63.49z M222.004,68.137c-0.968,1.293-1.815,2.817-2.512,4.532l-3.363-0.001
					C217.75,70.783,219.748,69.24,222.004,68.137z M214.16,75.438l4.398,0.001c-0.677,2.374-1.092,4.998-1.199,7.79l-5.615-0.002
					C211.959,80.405,212.81,77.763,214.16,75.438z M213.834,93.242c-1.17-2.189-1.894-4.643-2.09-7.243l5.615,0.002
					c0.097,2.578,0.453,5.016,1.036,7.242L213.834,93.242z M215.664,96.012l3.616,0.001c0.734,1.937,1.646,3.656,2.714,5.085
					C219.522,99.887,217.36,98.148,215.664,96.012z M228.643,102.77c-2.524-0.686-4.776-3.188-6.334-6.756l6.336,0.002
					L228.643,102.77z M228.646,93.246l-7.348-0.002c-0.652-2.199-1.059-4.657-1.168-7.243l8.518,0.003L228.646,93.246z
					 M228.649,83.233l-8.518-0.002c0.122-2.805,0.601-5.454,1.354-7.79l7.166,0.002L228.649,83.233z M228.652,72.671l-6.082-0.002
					c1.547-3.271,3.692-5.552,6.084-6.199L228.652,72.671z M245.914,75.447c1.348,2.326,2.197,4.968,2.409,7.792l-5.614-0.002
					c-0.105-2.792-0.521-5.417-1.194-7.791L245.914,75.447z M243.946,72.676l-3.364-0.001c-0.694-1.715-1.542-3.24-2.508-4.534
					C240.329,69.247,242.326,70.79,243.946,72.676z M231.425,66.471c2.391,0.648,4.534,2.931,6.079,6.203l-6.081-0.002
					L231.425,66.471z M231.423,75.443l7.164,0.002c0.753,2.337,1.231,4.986,1.35,7.791l-8.516-0.003L231.423,75.443z
					 M231.419,86.005l8.516,0.002c-0.112,2.586-0.518,5.043-1.172,7.242l-7.346-0.002L231.419,86.005z M231.414,102.77l0.002-6.753
					l6.335,0.002C236.193,99.586,233.939,102.086,231.414,102.77z M238.064,101.103c1.068-1.427,1.981-3.147,2.717-5.084
					l3.616,0.001C242.698,98.155,240.536,99.894,238.064,101.103z M246.228,93.251l-4.559-0.001
					c0.585-2.226,0.939-4.664,1.039-7.242l5.614,0.002C248.124,88.61,247.397,91.063,246.228,93.251z"/>
			</g>
		</g>
	</g>
	<g>
		<g>
			<g>
				<g>
					<path fill="#94CE28" d="M102.218,71.672C96.584,71.672,92,76.255,92,81.889v32.299c0,5.634,4.584,10.218,10.218,10.218h34.626
						V71.672H102.218z"/>
					<path fill="#D0EB51" d="M208.132,71.672h-71.289v52.733h71.289c5.633,0,10.217-4.584,10.217-10.218V81.889
						C218.349,76.255,213.766,71.672,208.132,71.672z"/>
				</g>
				<g>
					<g>
						<g>
							<g>
								<path fill="#56BA22" d="M205.949,88.865h-55.532c-1.473,0-2.666-1.194-2.666-2.666s1.194-2.666,2.666-2.666h55.532
									c1.473,0,2.666,1.194,2.666,2.666S207.421,88.865,205.949,88.865z"/>
							</g>
							<g>
								<path fill="#BF2E2E" d="M124.441,88.865h-20.039c-1.473,0-2.666-1.194-2.666-2.666s1.194-2.666,2.666-2.666h20.039
									c1.473,0,2.666,1.194,2.666,2.666S125.914,88.865,124.441,88.865z"/>
							</g>
							<g>
								<path fill="#94CE28" d="M205.949,100.705h-55.532c-1.473,0-2.666-1.194-2.666-2.666c0-1.473,1.194-2.666,2.666-2.666h55.532
									c1.473,0,2.666,1.194,2.666,2.666C208.615,99.511,207.421,100.705,205.949,100.705z"/>
							</g>
							<g>
								<path fill="#94CE28" d="M205.949,112.546h-55.532c-1.473,0-2.666-1.194-2.666-2.666c0-1.473,1.194-2.666,2.666-2.666h55.532
									c1.473,0,2.666,1.194,2.666,2.666C208.615,111.352,207.421,112.546,205.949,112.546z"/>
							</g>
						</g>
					</g>
				</g>
			</g>
			<path fill="#FFFFFF" d="M101.753,100.724c0-2.688,2.179-4.867,4.867-4.867h15.637c2.688,0,4.867,2.179,4.867,4.867v5.661
				c0,2.688-2.179,4.867-4.867,4.867H106.62c-2.688,0-4.867-2.179-4.867-4.867V100.724z"/>
		</g>
		<circle fill="#EF5854" cx="154.44" cy="56.619" r="24.952"/>
		<path fill="#FFFFFF" d="M171.932,56.977h-0.015l0-1.435c-0.557-9.076-8.135-15.897-17.349-15.897
			c-8.356,0-15.316,5.944-16.96,13.818l-0.015,0.034l-2.464-0.878c-0.376-0.198-0.836-0.135-1.147,0.157
			c-0.31,0.291-0.401,0.748-0.228,1.134l4.783,9.505c0.014,0.031,0.043,0.065,0.062,0.097c0.142,0.334,0.44,0.679,0.753,0.753
			c0.384,0.089,0.985-0.249,1.225-0.563l6.825-8.163c0.257-0.337,0.272-0.802,0.037-1.156c-0.236-0.356-0.67-0.521-1.081-0.415
			l-2.98,0.25c1.239-5.166,5.648-8.972,11.19-8.972c6.125,0,11.308,4.795,11.745,12.005l0.007-0.002
			c-0.129,6.376-5.346,11.526-11.752,11.526c-2.087,0-5.005-1.234-6.729-2.456l-0.853-0.744c-1.217-1.061-3.063-0.935-4.124,0.281
			c-1.061,1.217-0.935,3.063,0.281,4.124l1.174,0.999c-0.005,0.003-0.008,0.007-0.013,0.01c0.07,0.057,0.141,0.103,0.212,0.158
			l0.218,0.186c0.004-0.005,0.007-0.01,0.011-0.014c2.858,2.18,5.879,3.058,9.824,3.058c9.576,0,17.366-7.791,17.366-17.366
			C171.933,56.999,171.932,56.988,171.932,56.977z"/>
		<circle fill="#D13D3D" cx="193.397" cy="56.619" r="24.952"/>
	</g>
	<g>
		<g>
			<g>
				<g>
					<path fill="#FFFFFF" d="M203.011,61.975c1.343,1.343,1.343,3.52,0,4.863l0,0c-1.343,1.343-3.52,1.343-4.863,0l-14.524-14.524
						c-1.343-1.343-1.343-3.52,0-4.863l0,0c1.343-1.343,3.52-1.343,4.863,0L203.011,61.975z"/>
				</g>
				<g>
					<path fill="#FFFFFF" d="M188.392,66.933c-1.343,1.343-3.52,1.343-4.863,0l0,0c-1.343-1.343-1.343-3.52,0-4.863l14.524-14.524
						c1.343-1.343,3.52-1.343,4.863,0l0,0c1.343,1.343,1.343,3.52,0,4.863L188.392,66.933z"/>
				</g>
			</g>
		</g>
	</g>
</g>
</svg>
